<svg width="104" height="82" viewBox="0 0 104 82" fill="none" xmlns="http://www.w3.org/2000/svg">
<path fill-rule="evenodd" clip-rule="evenodd" d="M14.4688 29.3829C11.4873 14.8882 16.4585 0.959941 20.0946 0.0506796C22.689 -0.598088 30.7323 5.06723 35.3689 12.1516C34.1619 12.5813 32.9846 13.059 31.8403 13.5828C28.3696 8.66975 23.5298 5.04866 21.8346 5.52538C19.0863 6.29824 16.4887 18.4143 17.9598 24.1621C16.6387 25.791 15.4691 27.5347 14.4688 29.3829Z" fill="black"/>
<path fill-rule="evenodd" clip-rule="evenodd" d="M69.6263 12.7932C70.8095 13.2699 71.9611 13.7941 73.0778 14.3638C76.5361 9.561 81.2593 6.05245 82.9296 6.52216C85.7634 7.31907 88.3587 20.7578 87.1108 26.5442C88.2168 28.1785 89.1808 29.9103 89.988 31.731C93.579 16.7635 88.4112 1.9881 84.6624 1.05068C82.1119 0.41289 74.2954 5.87732 69.6263 12.7932Z" fill="black"/>
<path d="M1 52.8599C5 50.5 13.5 50.5 15.1259 51.2904" stroke="black" stroke-width="2" stroke-linecap="round"/>
<path d="M102.105 52.8599C98.1052 50.5 89.6052 50.5 87.9793 51.2904" stroke="black" stroke-width="2" stroke-linecap="round"/>
<path d="M3.23616 41.5131C6.02343 41.2856 12.3897 42.1087 15.5873 45.088" stroke="black" stroke-width="2" stroke-linecap="round"/>
<path d="M99.869 41.5131C97.0817 41.2856 90.7155 42.1087 87.5179 45.088" stroke="black" stroke-width="2" stroke-linecap="round"/>
<path d="M6 61C9.13905 59.4305 11.9969 58.3934 16.1051 58.289" stroke="black" stroke-width="2" stroke-linecap="round"/>
<path d="M97.1052 61C93.9661 59.4305 91.1082 58.3934 87 58.289" stroke="black" stroke-width="2" stroke-linecap="round"/>
<path fill-rule="evenodd" clip-rule="evenodd" d="M92.8886 45.7114C92.8886 67.174 74.4274 82.0027 51.6543 82.0027C28.8812 82.0027 10.42 67.174 10.42 45.7114C10.42 24.2487 28.8812 9.41998 51.6543 9.41998C74.4274 9.41998 92.8886 24.2487 92.8886 45.7114ZM56.4124 54.798C56.4124 56.0128 54.2435 57.4891 52.9453 58.264C53.6915 59.8348 55.2168 62.31 57.42 62.31C58.4663 62.31 59.2005 61.9157 59.7658 61.6121C60.4052 61.2688 60.8284 61.0415 61.2427 61.6319C62.028 62.7513 60.7114 63.4343 59.6832 63.9677C59.1699 64.234 58.7284 64.4631 58.6561 64.6905C57.6341 67.9034 54.5001 69.9992 51.9951 69.9992C49.4954 69.9992 46.3694 67.9122 45.3407 64.7108C45.2666 64.4801 44.802 64.2467 44.2653 63.9771C43.2 63.4418 41.8502 62.7637 42.7041 61.6792C43.2306 61.0105 43.7003 61.2762 44.3546 61.6463C44.8814 61.9443 45.5279 62.31 46.42 62.31C48.7001 62.31 50.2705 59.8178 51.0335 58.2479C49.7533 57.4687 47.6486 56.0044 47.6486 54.798C47.6486 53.0644 48.856 51.9992 51.9951 51.9992C55.1342 51.9992 56.4124 53.0644 56.4124 54.798ZM47.4984 64.7416C47.8042 65.3924 48.2341 65.9739 48.745 66.4671C49.8237 67.5083 51.0973 67.9992 51.9951 67.9992C52.8929 67.9992 54.1666 67.5083 55.2452 66.4671C55.7478 65.9819 56.172 65.4113 56.4768 64.7734C55.9292 64.6895 55.4053 64.5259 54.9102 64.2922C53.5758 63.6623 52.6134 62.6018 51.9469 61.6319C51.928 61.6045 51.9094 61.5771 51.8909 61.5496C51.8601 61.5929 51.8289 61.6361 51.7974 61.6792C51.1095 62.6206 50.143 63.659 48.8622 64.2821C48.4303 64.4922 47.9739 64.649 47.4984 64.7416ZM33.4359 49.1793C38.3928 49.1793 42.4112 45.9372 42.4112 41.2447C42.4112 36.5521 38.3928 33.31 33.4359 33.31C28.479 33.31 24.4606 36.5521 24.4606 41.2447C24.4606 45.9372 28.479 49.1793 33.4359 49.1793ZM70.6379 49.1793C75.5948 49.1793 79.6132 45.9372 79.6132 41.2447C79.6132 36.5521 75.5948 33.31 70.6379 33.31C65.681 33.31 61.6626 36.5521 61.6626 41.2447C61.6626 45.9372 65.681 49.1793 70.6379 49.1793ZM26.5839 53.5984C26.5253 53.6734 26.4539 53.758 26.3762 53.8244C26.2718 53.9136 26.1607 54.0056 26.0459 54.1008C25.703 54.3849 25.326 54.6973 24.99 55.0465C24.5368 55.5173 24.2382 55.9777 24.1989 56.4105C24.1794 56.6251 23.9895 56.7833 23.7749 56.7638C23.5603 56.7442 23.4021 56.5544 23.4216 56.3398C23.4862 55.6288 23.9483 55.0033 24.4276 54.5053C24.7975 54.121 25.2251 53.7668 25.5736 53.4782C25.681 53.3892 25.7809 53.3064 25.8693 53.231C25.8952 53.2088 25.9376 53.16 26.0053 53.0705C26.0205 53.0504 26.0374 53.0277 26.0554 53.0035C26.1045 52.9373 26.1621 52.8599 26.2157 52.795C26.2826 52.7142 26.394 52.5876 26.5388 52.5173C26.6206 52.4775 26.737 52.4438 26.8716 52.4693C27.0088 52.4953 27.1108 52.5726 27.1799 52.6543C27.2557 52.7438 27.2938 52.8459 27.3153 52.9228C27.338 53.0043 27.3507 53.09 27.358 53.1706C27.3728 53.3317 27.3698 53.5126 27.3615 53.679C27.3531 53.8474 27.3384 54.015 27.3266 54.1501C27.3137 54.2975 27.3065 54.3842 27.3068 54.4224C27.307 54.4537 27.3049 54.5003 27.3022 54.5598C27.2957 54.7031 27.2858 54.9209 27.297 55.179C27.2988 55.2212 27.3012 55.261 27.304 55.2982C27.3439 55.2656 27.387 55.2282 27.4336 55.1855C27.4982 55.1264 27.5603 55.0662 27.6247 55.0039C27.6456 54.9836 27.6668 54.9631 27.6884 54.9423C27.7715 54.8622 27.8626 54.7762 27.9513 54.7059C28.154 54.5453 28.3321 54.3904 28.517 54.2295C28.6571 54.1076 28.8012 53.9822 28.963 53.8483C29.0399 53.7847 29.178 53.704 29.3563 53.7328C29.5301 53.7608 29.6317 53.8756 29.6792 53.9451C29.7671 54.0738 29.8021 54.2403 29.8199 54.3406C29.841 54.4597 29.8528 54.5846 29.8604 54.6786C29.8627 54.7064 29.8649 54.7365 29.8668 54.7616C29.8679 54.7762 29.8689 54.7891 29.8697 54.7989C29.8717 54.825 29.8728 54.8345 29.8727 54.8345C29.8726 54.8345 29.8722 54.8316 29.8713 54.8271C29.8858 54.9038 29.8976 54.9712 29.9085 55.0336C29.9183 55.0895 29.9273 55.1414 29.937 55.1924C30.6355 54.37 31.3612 53.5764 32.2565 52.9049C32.305 52.8685 32.4404 52.7798 32.6216 52.8209C32.8137 52.8645 32.8949 53.0149 32.9209 53.0748C32.9498 53.1416 32.9598 53.2065 32.9644 53.2445C32.9697 53.2878 32.9717 53.3312 32.9725 53.3682C32.9735 53.4114 32.973 53.4684 32.9727 53.5158C32.9725 53.5397 32.9723 53.5612 32.9723 53.5772C32.9725 53.6363 32.9749 53.6619 32.9754 53.6675C32.9755 53.6686 32.9755 53.6689 32.9754 53.6686C32.9987 53.7747 33.0208 53.8959 33.0416 54.0099C33.0461 54.0345 33.0506 54.0587 33.0549 54.0824C33.2558 53.7804 33.4547 53.4288 33.5395 53.2789C33.5508 53.259 33.56 53.2427 33.567 53.2305C33.6739 53.0434 33.9123 52.9784 34.0994 53.0853C34.2865 53.1922 34.3515 53.4306 34.2446 53.6177C34.2388 53.628 34.2306 53.6424 34.2203 53.6606C34.1376 53.807 33.9193 54.1933 33.6982 54.5245C33.5777 54.705 33.4378 54.8977 33.3065 55.0244C33.2529 55.0762 33.1416 55.1774 32.9916 55.2108C32.8995 55.2313 32.7745 55.2296 32.6551 55.1561C32.5432 55.0871 32.4884 54.9866 32.4618 54.9158C32.391 54.727 32.3459 54.5271 32.3104 54.3455C32.2948 54.2661 32.2818 54.1942 32.2694 54.126C32.2569 54.0571 32.245 53.9919 32.232 53.9266C31.6154 54.4592 31.0704 55.063 30.5189 55.713C30.3693 55.8892 30.1988 56.0558 30.0026 56.1224C29.8879 56.1614 29.7507 56.1707 29.6142 56.1137C29.4853 56.06 29.4033 55.9665 29.3534 55.8896C29.2619 55.7487 29.2177 55.5678 29.1893 55.4333C29.1713 55.3478 29.1529 55.2436 29.1354 55.144C29.1247 55.0832 29.1143 55.0242 29.1045 54.9722C29.0975 54.9354 29.0939 54.8889 29.0919 54.8632L29.0916 54.8601C29.0903 54.8439 29.0892 54.829 29.0881 54.8137C29.087 54.7999 29.086 54.7859 29.0848 54.7704C29.0757 54.7783 29.0665 54.7862 29.0574 54.7942C28.8533 54.9711 28.6403 55.1558 28.4359 55.3177C28.3802 55.3618 28.3136 55.4237 28.2298 55.5044C28.2117 55.5218 28.1928 55.5401 28.1733 55.5591C28.1073 55.623 28.0341 55.6939 27.9605 55.7613C27.7812 55.9254 27.529 56.1373 27.2453 56.2161C27.1593 56.2401 27.0622 56.2427 26.9652 56.2114C26.871 56.1811 26.8009 56.1266 26.752 56.0739C26.6623 55.9773 26.6185 55.8595 26.5947 55.779C26.5442 55.6084 26.5252 55.396 26.5172 55.2128C26.5023 54.8676 26.5261 54.3995 26.5263 54.4277C26.5258 54.3475 26.5368 54.2223 26.5472 54.1041C26.5478 54.0967 26.5485 54.0893 26.5491 54.082C26.5611 53.9452 26.5745 53.7918 26.582 53.6402C26.5827 53.6261 26.5834 53.6122 26.5839 53.5984ZM26.5598 53.121C26.5598 53.121 26.5601 53.1216 26.5606 53.123ZM27.3512 55.5806C27.3512 55.5806 27.3509 55.5801 27.3504 55.5789ZM79.5732 51.5865C79.6967 51.8335 79.5965 52.1338 79.3496 52.2573C79.3436 52.2617 79.2948 52.2981 79.2179 52.4203C79.1404 52.5434 79.0627 52.7073 78.9863 52.8973C78.9108 53.0851 78.8427 53.283 78.78 53.4702C78.7693 53.502 78.7587 53.5341 78.748 53.566C78.699 53.7131 78.6508 53.858 78.6083 53.9673C78.6028 53.9813 78.5974 53.9953 78.5921 54.009C78.5037 54.2364 78.4308 54.4239 78.3712 54.5415C78.3538 54.5759 78.3313 54.617 78.3035 54.6574C78.2795 54.6924 78.2301 54.759 78.1502 54.8151C78.0586 54.8794 77.9022 54.9444 77.7147 54.8969C77.5519 54.8556 77.4582 54.7509 77.42 54.702C77.3497 54.6121 77.3116 54.5057 77.296 54.4622L77.2951 54.4595C77.2773 54.41 77.258 54.3497 77.2395 54.2917C77.236 54.2807 77.2325 54.2697 77.229 54.2589C77.1831 54.1157 77.1247 53.9393 77.0361 53.7341C77.0103 53.6742 76.9871 53.6279 76.9674 53.5922C76.9156 53.6484 76.8524 53.7275 76.7762 53.8335C76.7031 53.9353 76.6391 54.0309 76.5704 54.1333C76.5171 54.2129 76.461 54.2966 76.3958 54.3905C76.3987 54.3863 76.4006 54.3839 76.4006 54.3839C76.4006 54.3839 76.3906 54.402 76.3639 54.4524C76.3559 54.4675 76.3469 54.4845 76.3373 54.5027C76.3151 54.5449 76.2897 54.5931 76.2654 54.6381C76.2317 54.7007 76.1913 54.7739 76.1548 54.8313C76.1404 54.8539 76.1086 54.9034 76.0663 54.9488L76.065 54.9502C76.0517 54.9646 75.9829 55.0395 75.8698 55.0832C75.8005 55.11 75.6653 55.1436 75.5099 55.0852C75.3489 55.0248 75.2659 54.9036 75.2291 54.824C75.0265 54.3849 74.8461 53.9261 74.704 53.4562C74.6926 53.4183 74.6826 53.3695 74.6772 53.3433L74.6761 53.3382C74.6744 53.3298 74.6727 53.3213 74.6709 53.3127C74.6692 53.3047 74.6676 53.2965 74.6658 53.2881C74.5723 53.3808 74.4781 53.4772 74.3814 53.5766C74.362 53.5966 74.3425 53.6167 74.3228 53.637C74.1105 53.8557 73.8845 54.0886 73.6447 54.3044C73.4486 54.4809 73.1969 54.6659 72.9039 54.6803C72.5184 54.6992 72.3015 54.4352 72.2029 54.2547C72.1119 54.0882 72.0541 53.8794 72.0114 53.7249L72.0104 53.721C72.0063 53.7063 72.0023 53.6917 71.9983 53.6772C71.954 53.5167 71.914 53.3717 71.8604 53.2335C71.8488 53.2037 71.8377 53.1771 71.8271 53.1534C71.7879 53.1961 71.7435 53.2487 71.6933 53.3121C71.6427 53.3761 71.5801 53.4601 71.5115 53.5521C71.3826 53.725 71.2326 53.9262 71.101 54.0765C70.99 54.2033 70.8586 54.336 70.7088 54.4395C70.5593 54.5428 70.3583 54.6398 70.1176 54.6398C69.8415 54.6398 69.6176 54.416 69.6176 54.1398C69.6176 53.8693 69.8325 53.6489 70.101 53.6401C70.1076 53.6371 70.1206 53.6304 70.1403 53.6168C70.1931 53.5803 70.2621 53.5166 70.3488 53.4176C70.4624 53.2878 70.5577 53.1589 70.6627 53.0167C70.7368 52.9165 70.8157 52.8096 70.9093 52.6914C71.0079 52.5668 71.121 52.4342 71.2439 52.3254C71.3601 52.2227 71.5345 52.0962 71.7585 52.0601C72.0212 52.0177 72.2581 52.1126 72.4362 52.2844C72.5937 52.4365 72.7051 52.6462 72.7927 52.8717C72.8658 53.0601 72.919 53.254 72.9612 53.4074C72.9657 53.4236 72.97 53.4393 72.9742 53.4546C72.9829 53.4859 72.9909 53.5145 72.9984 53.5406C73.2035 53.3542 73.3997 53.1521 73.6089 52.9367C73.6273 52.9178 73.6457 52.8988 73.6643 52.8797C73.8972 52.64 74.1468 52.3859 74.4181 52.1545C74.5184 52.069 74.6755 51.9823 74.8758 51.9965C75.0704 52.0102 75.2061 52.1124 75.2828 52.191C75.4201 52.3317 75.4919 52.5224 75.5292 52.6333C75.5737 52.7653 75.606 52.903 75.6281 53.005C75.637 53.0459 75.6449 53.0843 75.6511 53.1145C75.6527 53.1223 75.6541 53.1296 75.6555 53.1362C75.661 53.1627 75.6636 53.1746 75.6636 53.1746C75.6988 53.2904 75.7367 53.4059 75.777 53.521C75.8408 53.4265 75.9057 53.3313 75.964 53.2501C76.0941 53.069 76.257 52.8608 76.4463 52.7163C76.6437 52.5658 76.9715 52.4154 77.3366 52.5866C77.5621 52.6923 77.7229 52.8906 77.8451 53.1128C77.906 52.932 77.9773 52.7262 78.0585 52.5244C78.1447 52.3098 78.2483 52.0835 78.3716 51.8876C78.488 51.7028 78.6584 51.4848 78.9023 51.3629C79.1493 51.2394 79.4497 51.3395 79.5732 51.5865ZM72.8023 53.6909L72.8035 53.6904Z" fill="black"/>
<path d="M37.8 41.2C37.8 43.5925 36.0611 45.2 33.8 45.2C31.5389 45.2 29.8 43.5925 29.8 41.2C29.8 38.8075 31.5389 37.2 33.8 37.2C36.0611 37.2 37.8 38.8075 37.8 41.2Z" stroke="black" stroke-width="4"/>
<path d="M74.8 41.2C74.8 43.5925 73.0611 45.2 70.8 45.2C68.5389 45.2 66.8 43.5925 66.8 41.2C66.8 38.8075 68.5389 37.2 70.8 37.2C73.0611 37.2 74.8 38.8075 74.8 41.2Z" stroke="black" stroke-width="4"/>
</svg>
