<svg width="104" height="82" viewBox="0 0 104 82" fill="none" xmlns="http://www.w3.org/2000/svg">
<path fill-rule="evenodd" clip-rule="evenodd" d="M17.7845 24.38C13.1402 30.2016 10.4172 37.4659 10.4172 45.7086C10.4172 67.1713 28.8785 82 51.6515 82C74.4246 82 92.8858 67.1713 92.8858 45.7086C92.8858 38.458 90.7789 31.9645 87.1107 26.544C86.939 28.7306 86.5745 30.782 85.9681 32.5L85.9446 32.5658C87.8452 36.5232 88.8858 40.9508 88.8858 45.7086C88.8858 64.4027 72.8199 78 51.6515 78C30.4832 78 14.4172 64.4027 14.4172 45.7086C14.4172 39.992 15.9196 34.7521 18.6108 30.2318C18.1455 28.4796 17.8836 26.4741 17.7845 24.38ZM33.9009 17.0223C39.1239 14.7011 45.1468 13.4172 51.6515 13.4172C58.8954 13.4172 65.5418 15.0095 71.1513 17.8535C71.7464 16.6719 72.4556 15.5245 73.2299 14.4418C66.9528 11.2066 59.5623 9.41724 51.6515 9.41724C44.4707 9.41724 37.7186 10.8916 31.8389 13.5834C32.6105 14.6762 33.3144 15.8327 33.9009 17.0223Z" fill="black"/>
<path fill-rule="evenodd" clip-rule="evenodd" d="M14.4688 29.3829C11.4873 14.8882 16.4585 0.959941 20.0946 0.0506796C22.689 -0.598088 30.7323 5.06723 35.3689 12.1516C34.1619 12.5813 32.9846 13.059 31.8403 13.5828C28.3696 8.66975 23.5298 5.04866 21.8346 5.52538C19.0863 6.29824 16.4887 18.4143 17.9598 24.1621C16.6387 25.791 15.4691 27.5347 14.4688 29.3829Z" fill="black"/>
<path fill-rule="evenodd" clip-rule="evenodd" d="M69.6263 12.7932C70.8094 13.2699 71.961 13.7941 73.0777 14.3638C76.5361 9.561 81.2592 6.05245 82.9295 6.52217C85.7634 7.31907 88.3587 20.7578 87.1107 26.5442C88.2167 28.1785 89.1808 29.9103 89.9879 31.731C93.5789 16.7635 88.4111 1.98811 84.6624 1.05068C82.1118 0.412893 74.2953 5.87732 69.6263 12.7932Z" fill="black"/>
<path d="M78.618 40.2455C78.618 44.2497 75.194 47.1801 70.6427 47.1801C66.0914 47.1801 62.6674 44.2497 62.6674 40.2455C62.6674 36.2412 66.0914 33.3108 70.6427 33.3108C75.194 33.3108 78.618 36.2412 78.618 40.2455Z" stroke="black" stroke-width="2"/>
<path d="M75.9758 40.2452C75.9758 41.4482 75.1969 42.1964 74.0246 42.1964C72.8524 42.1964 72.0735 41.4482 72.0735 40.2452C72.0735 39.0422 72.8524 38.2941 74.0246 38.2941C75.1969 38.2941 75.9758 39.0422 75.9758 40.2452Z" stroke="black" stroke-width="7.28429"/>
<path d="M38.7741 40.2452C38.7741 41.4482 37.9952 42.1964 36.8229 42.1964C35.6506 42.1964 34.8718 41.4482 34.8718 40.2452C34.8718 39.0422 35.6506 38.2941 36.8229 38.2941C37.9952 38.2941 38.7741 39.0422 38.7741 40.2452Z" stroke="black" stroke-width="7.28429"/>
<path d="M41.416 40.2455C41.416 44.2497 37.992 47.1801 33.4407 47.1801C28.8895 47.1801 25.4655 44.2497 25.4655 40.2455C25.4655 36.2412 28.8895 33.3108 33.4407 33.3108C37.992 33.3108 41.416 36.2412 41.416 40.2455Z" stroke="black" stroke-width="2"/>
<path d="M43.5 61.2988C49 65.2988 51.9835 57.4289 51.9835 57.4289" stroke="black" stroke-width="2" stroke-linecap="round"/>
<path d="M60.4835 61.2988C54.9835 65.2988 52 57.4289 52 57.4289" stroke="black" stroke-width="2" stroke-linecap="round"/>
<path d="M23.4248 55.6068C23.5288 54.4631 24.9462 53.4351 25.7373 52.7593C25.986 52.5469 26.2854 51.8884 26.4966 52.1381C26.6915 52.3684 26.5294 53.41 26.5311 53.6567C26.5317 53.7353 26.4306 55.1621 26.7555 55.0718C27.1236 54.9696 27.5194 54.4722 27.8082 54.2435C28.1589 53.9656 28.4837 53.6642 28.8264 53.3806C29.0745 53.1752 29.083 54.0286 29.1025 54.1313C29.2229 54.768 29.2516 55.3808 29.8359 54.6922C30.5341 53.8693 31.2404 53.0973 32.1052 52.4487C32.2506 52.3397 32.17 52.8062 32.2088 52.9837C32.2808 53.313 32.3234 53.6948 32.4418 54.0105C32.5739 54.3628 33.4072 52.8537 33.5204 52.6558" stroke="black" stroke-width="0.78046" stroke-linecap="round"/>
<path d="M69.7322 53.3716C70.5586 53.3716 71.3259 50.699 71.9411 52.2843C72.2196 53.002 72.1749 53.8394 72.9248 53.1645C73.4182 52.7204 73.8543 52.1955 74.3571 51.7666C74.6373 51.5276 74.7644 52.4347 74.7972 52.5432C74.9315 52.9875 75.1031 53.4246 75.2977 53.8461C75.3186 53.8914 75.5552 53.401 75.5997 53.337C76.117 52.5921 76.6176 51.6279 77.1097 52.7675C77.5031 53.6787 77.3508 54.0618 77.7568 53.0178C77.9411 52.5441 78.2584 51.2829 78.7405 51.0418" stroke="black" stroke-width="0.78046" stroke-linecap="round"/>
<path d="M1 52.8599C5 50.5 13.5 50.5 15.1259 51.2904" stroke="black" stroke-width="2" stroke-linecap="round"/>
<path d="M102.105 52.8599C98.1052 50.5 89.6052 50.5 87.9793 51.2904" stroke="black" stroke-width="2" stroke-linecap="round"/>
<path d="M3.23616 41.5131C6.02343 41.2856 12.3897 42.1087 15.5873 45.088" stroke="black" stroke-width="2" stroke-linecap="round"/>
<path d="M99.869 41.5131C97.0817 41.2856 90.7155 42.1087 87.5179 45.088" stroke="black" stroke-width="2" stroke-linecap="round"/>
<path d="M6 61C9.13905 59.4305 11.9969 58.3934 16.1051 58.289" stroke="black" stroke-width="2" stroke-linecap="round"/>
<path d="M97.1052 61C93.9661 59.4305 91.1082 58.3934 87 58.289" stroke="black" stroke-width="2" stroke-linecap="round"/>
<path d="M56.4172 53.7988C56.4172 55.5325 52 57.7988 52 57.7988C52 57.7988 47.6535 55.5325 47.6535 53.7988C47.6535 52.0652 48.8609 51 52 51C55.1391 51 56.4172 52.0652 56.4172 53.7988Z" fill="black"/>
</svg>
